inDegrees=no
num_controls=7
num_derivatives=13
num_iterations=62
num_multipliers=7
num_parameters=0
num_slacks=7
num_states=26
objective=0.449219
objective_accelerations=0.050477
objective_balance=0.006618
objective_effort=0.036468
objective_height=0.350713
objective_ligament=0.004943
solver_duration=871.900064
status=Solve_Succeeded
success=true
DataType=double
version=3
OpenSimVersion=4.5
endheader
time	/jointset/ground_pelvis/pelvis_tilt/value	/jointset/ground_pelvis/pelvis_tx/value	/jointset/ground_pelvis/pelvis_ty/value	/jointset/hip_l/hip_flexion_l/value	/jointset/hip_l/hip_adduction_l/value	/jointset/hip_l/hip_rotation_l/value	/jointset/back/lumbar_extension/value	/jointset/patellofemoral_l/patellar_flexion_l/value	/jointset/knee_l/knee_flexion_l/value	/jointset/knee_l/knee_adduction_l/value	/jointset/knee_l/knee_rotation_l/value	/jointset/ankle_l/ankle_angle_l/value	/jointset/subtalar_l/subtalar_angle_l/value	/jointset/ground_pelvis/pelvis_tilt/speed	/jointset/ground_pelvis/pelvis_tx/speed	/jointset/ground_pelvis/pelvis_ty/speed	/jointset/hip_l/hip_flexion_l/speed	/jointset/hip_l/hip_adduction_l/speed	/jointset/hip_l/hip_rotation_l/speed	/jointset/back/lumbar_extension/speed	/jointset/patellofemoral_l/patellar_flexion_l/speed	/jointset/knee_l/knee_flexion_l/speed	/jointset/knee_l/knee_adduction_l/speed	/jointset/knee_l/knee_rotation_l/speed	/jointset/ankle_l/ankle_angle_l/speed	/jointset/subtalar_l/subtalar_angle_l/speed	/forceset/tau_hip_flexion_l	/forceset/tau_hip_adduction_l	/forceset/tau_hip_rotation_l	/forceset/tau_knee_flexion_l	/forceset/tau_ankle_angle_l	/forceset/tau_subtalar_angle_l	/forceset/tau_lumbar_extension	lambda_cid13_p0	lambda_cid13_p1	lambda_cid13_p2	lambda_cid13_p3	lambda_cid13_p4	lambda_cid13_p5	lambda_cid14_p0	/jointset/ground_pelvis/pelvis_tilt/accel	/jointset/ground_pelvis/pelvis_tx/accel	/jointset/ground_pelvis/pelvis_ty/accel	/jointset/hip_l/hip_flexion_l/accel	/jointset/hip_l/hip_adduction_l/accel	/jointset/hip_l/hip_rotation_l/accel	/jointset/back/lumbar_extension/accel	/jointset/patellofemoral_l/patellar_flexion_l/accel	/jointset/knee_l/knee_flexion_l/accel	/jointset/knee_l/knee_adduction_l/accel	/jointset/knee_l/knee_rotation_l/accel	/jointset/ankle_l/ankle_angle_l/accel	/jointset/subtalar_l/subtalar_angle_l/accel	gamma_cid13_p0	gamma_cid13_p1	gamma_cid13_p2	gamma_cid13_p3	gamma_cid13_p4	gamma_cid13_p5	gamma_cid14_p0
1.5	-0.4398357519720791	-0.06371123920263852	0.763043983444585	1.259684303840242	-0.3080348648441322	-0.03455942541134027	-0.3441337002738978	0.7135740152523686	0.7135740152522575	-0.1715584457090715	0.1718681521179938	0.06337775559624574	-0.04229735456314556	0.7114909653887569	0.2337239786849257	0.4903262248640074	-2.317682980389979	0.024128202584783	-0.6232716456857754	0.5611338812702036	-1.816115005800405	-1.81611500580092	0.005603030298510911	-0.01264588226631965	-0.3092352356808397	-0.01575640200539516	-0.2456030521075432	0.06588798116929842	-0.0213015691923273	-0.2027328336759844	0.1286218240192279	0.0008699031747625822	0.2221295562626764	1.561916298479778	-2.995307943809462	2.752559559291439	-3.88322702481948	-608.6537258137253	-19.98142153133699	-26.81394164842068	0.6041939181969763	0.6310643894047627	-0.326129594195568	-1.440226062089369	0.5868933716076904	-0.2945934590601224	1.672109120299498	-1.090144373421795	-1.0901443734218	0.01132554554013663	-0.02199881238737191	-0.2144709913298642	0.5628797746072749	3.411624617396915e-07	7.422148355776914e-07	-1.728932116152797e-06	-1.39082682313785e-07	4.161984906012685e-07	5.298703271179095e-08	3.45208475288468e-07
1.51	-0.4326909543654271	-0.06134261591095953	0.7679300253548029	1.236437407198811	-0.3077657003070338	-0.040804871001592	-0.3384402614751545	0.6953602499522913	0.6953602499522126	-0.1715055819535574	0.1717409032753231	0.060274710642081	-0.04242841503628474	0.717365361113214	0.2399751255548118	0.486784716311826	-2.331375437826913	0.02970615193830018	-0.6257208467090515	0.5774767894032875	-1.826384468148544	-1.826384468148842	0.004942204144294029	-0.01281248625217884	-0.3113148656774093	-0.01045337719169722	-0.2375696718280531	0.06525863974056496	-0.02120727991107001	-0.2016596996226537	0.1298623277891994	-6.340540744921309e-05	0.2159062700405712	2.172473427384139	-2.836852879609167	2.887184074318582	-4.033396536056615	-604.2799319984813	-20.12763567759945	-27.87703531890125	0.5636258323471263	0.6182807494879857	-0.3826881812802472	-1.285566251701596	0.5436099067163948	-0.2052464056484146	1.603818298028763	-0.9573837351326457	-0.9573837351001333	-0.1088608199579848	-0.01489195120492134	-0.1958726259271209	0.5144375026330709	3.551445156377822e-07	8.232401642789972e-07	-1.795419795040408e-06	-1.329967508138731e-07	4.366415527046198e-07	9.937036603464224e-08	3.631516355664676e-07
1.52	-0.4254905001149928	-0.05891225296784086	0.7727777468403884	1.213063223849565	-0.3074406834384851	-0.04707184119839984	-0.332585706267438	0.677051382714846	0.6770513827147393	-0.1714601412844777	0.1716118082408153	0.05715263666353079	-0.04250636052771098	0.7226222941487821	0.2460719089728647	0.4826621399375699	-2.3431403219521	0.03529866887148882	-0.6275765669997938	0.5933571630650354	-1.835135393281591	-1.835135393281673	0.004118413027886999	-0.01301512061881595	-0.3130410405582411	-0.005133405662713299	-0.2295362915484734	0.06462929831193441	-0.02111299063061065	-0.2005865655691901	0.1311028315592236	-0.0009967139895034579	0.2096829838185255	2.777991821801603	-2.682216027624733	3.027787368096809	-4.197434889723792	-599.9918891474484	-20.36132687394025	-28.92882819515753	0.4807013804188036	0.6001916990382481	-0.4423431586104832	-1.05471139973968	0.5898068875419984	-0.1758973125532907	1.579602226032024	-0.7864369304034323	-0.7864369304034247	-0.02126744689807381	-0.02920488854284552	-0.1437799681821148	0.5662691176644087	2.974728745615756e-07	1.003607947235044e-06	-1.516475184141006e-06	-6.687333596190236e-08	4.062986585832087e-07	1.557238385921121e-07	3.380865311345867e-07
1.53	-0.4182405425620504	-0.05642175205168558	0.7775813638315644	1.189581247300117	-0.3070593537500944	-0.05335616134367738	-0.3265747460659204	0.6586631841911249	0.6586631841909493	-0.1714220758711069	0.1714817287555198	0.05401534475673308	-0.04253062812187462	0.7272703441147254	0.2519962350268325	0.4779679939447823	-2.352926955316073	0.04096219391727328	-0.6291597793017786	0.6087444560340753	-1.842234779615279	-1.842234779615216	0.003450771740305116	-0.01302868968034721	-0.3143506654544606	0.0002768839958114865	-0.2215492766414099	0.06382280577433314	-0.02100143345484343	-0.1994242918310632	0.1322123874579698	-0.002036991355451745	0.2034498988835738	3.33415092875447	-2.473367951253133	3.160761392982959	-4.294377705750255	-595.7519754467722	-20.5178003686392	-29.96068550681135	0.4420428902299703	0.5837736921549329	-0.4968845997586556	-0.8914129173428874	0.5537609996680395	-0.1301379766910519	1.504729651184732	-0.6313055958917606	-0.6313055958699255	-0.09587682072173011	0.008542797176293566	-0.1145346373377692	0.5277925829938336	1.63669182575179e-07	1.289527087836752e-06	-8.705087653429049e-07	6.303990495163014e-08	3.219956859729882e-07	2.22670584086364e-07	2.673251454484582e-07
1.54	-0.4109470672923349	-0.05387296374827527	0.7823352525067827	1.166011249694511	-0.3066215616738764	-0.0596524345695937	-0.3204126255709476	0.6402120685818352	0.6402120685816506	-0.1713919597407534	0.1713507087221001	0.05086696042357486	-0.04250091608084419	0.7313258375026453	0.2577293864238698	0.4727164767460885	-2.360744533184703	0.04659114642590226	-0.6299671831105712	0.623589221756935	-1.847718810390583	-1.847718810390375	0.002528556411395516	-0.01320323025650125	-0.3152595258305161	0.005662521376228177	-0.2135622617344201	0.06301631323663938	-0.02088987627813333	-0.1982620180931162	0.1333219433566511	-0.003077268721550867	0.197216813948591	3.88235148464246	-2.266087523481584	3.297367787000274	-4.379187850224167	-591.6297942416031	-20.73505013327136	-30.9680025503228	0.3621900648138082	0.5619567676522704	-0.553817399791706	-0.6609003006710396	0.5828923801108431	-0.02073561391480683	1.471096776795635	-0.4633658187268061	-0.463365818726796	-0.0721822551637579	-0.0613991914672946	-0.06362706414915149	0.5613386620427472	8.707742433951452e-08	1.473289225338405e-06	-5.091400952628335e-07	1.385210889950135e-07	2.786713381310273e-07	2.717057340098369e-07	2.292011650284703e-07
1.55	-0.4036161542039243	-0.05126788838179668	0.7870339161268587	1.142373034121758	-0.3061275345089047	-0.06595386628376679	-0.3141049457685566	0.6217141800001854	0.6217141800001673	-0.1713715581205438	0.1712177198741089	0.04771145284847432	-0.04241734094943599	0.7347394055334135	0.2632440183249689	0.4669301921363093	-2.366550617928763	0.05222246167827838	-0.6302626768704708	0.6378405612465297	-1.851588757978243	-1.851588757978058	0.001578293963294019	-0.01337914582546276	-0.3157786424203683	0.01106328070593193	-0.2053883093990278	0.06198586072340471	-0.02085731537392119	-0.1973693336607439	0.134759552757193	-0.004254593185253851	0.1908037544405247	4.521102290578105	-2.016254250775204	3.42846016944274	-4.473362151731152	-587.6459247601401	-20.91946076234876	-31.94603013218107	0.3133483928268893	0.5399977956322193	-0.6038853169187572	-0.4882491985968179	0.5543451587853724	-0.02524046496100037	1.386225913283706	-0.3083327130699919	-0.3083327130733002	-0.1022259066147627	0.006777170885750017	-0.03653317634254479	0.5308663913558925	7.640376368621177e-08	1.539348728833481e-06	-4.756775269665603e-07	1.512870770793154e-07	2.8256149273945e-07	3.001036107756742e-07	2.286811515455554e-07
